<svg xmlns="http://www.w3.org/2000/svg" viewBox="0 0 80 80" fill="none">
  <defs>
    <linearGradient id="av" x1="0" y1="0" x2="80" y2="80" gradientUnits="userSpaceOnUse">
      <stop stop-color="#818cf8"/>
      <stop offset="1" stop-color="#4f46e5"/>
    </linearGradient>
  </defs>
  <!-- Stacked version layers -->
  <rect x="16" y="8" width="48" height="10" rx="2" fill="url(#av)" fill-opacity=".15" stroke="url(#av)" stroke-width="1"/>
  <text x="22" y="15" font-size="4" font-family="monospace" fill="url(#av)" opacity=".5">V1</text>
  <rect x="16" y="20" width="48" height="10" rx="2" fill="url(#av)" fill-opacity=".2" stroke="url(#av)" stroke-width="1"/>
  <text x="22" y="27" font-size="4" font-family="monospace" fill="url(#av)" opacity=".6">V2</text>
  <rect x="16" y="32" width="48" height="10" rx="2" fill="url(#av)" fill-opacity=".25" stroke="url(#av)" stroke-width="1"/>
  <text x="22" y="39" font-size="4" font-family="monospace" fill="url(#av)" opacity=".7">V3</text>
  <rect x="16" y="44" width="48" height="10" rx="2" fill="url(#av)" fill-opacity=".3" stroke="url(#av)" stroke-width="1.5"/>
  <text x="22" y="51" font-size="4" font-family="monospace" fill="url(#av)" opacity=".8">V4</text>
  <!-- Shield / compliance icon -->
  <path d="M40 58L32 62V68C32 72 36 75 40 77C44 75 48 72 48 68V62Z" fill="url(#av)" fill-opacity=".2" stroke="url(#av)" stroke-width="1.5"/>
  <path d="M37 68L39.5 70.5L44 65.5" stroke="url(#av)" stroke-width="1.5" stroke-linecap="round" stroke-linejoin="round" fill="none"/>
  <!-- Timeline connector -->
  <line x1="14" y1="8" x2="14" y2="54" stroke="url(#av)" stroke-width="1.5" opacity=".4"/>
  <circle cx="14" cy="13" r="1.5" fill="url(#av)" opacity=".5"/>
  <circle cx="14" cy="25" r="1.5" fill="url(#av)" opacity=".6"/>
  <circle cx="14" cy="37" r="1.5" fill="url(#av)" opacity=".7"/>
  <circle cx="14" cy="49" r="1.5" fill="url(#av)" opacity=".8"/>
</svg>
