<svg xmlns="http://www.w3.org/2000/svg" viewBox="0 0 80 80" fill="none">
  <defs>
    <linearGradient id="aoe" x1="0" y1="0" x2="80" y2="80" gradientUnits="userSpaceOnUse">
      <stop stop-color="#f97316"/>
      <stop offset="1" stop-color="#dc2626"/>
    </linearGradient>
  </defs>
  <!-- Delta triangle -->
  <path d="M40 8L66 62H14L40 8Z" stroke="url(#aoe)" stroke-width="2" fill="url(#aoe)" fill-opacity=".10"/>
  <!-- Shield (compliance) -->
  <path d="M40 20C40 20 28 26 28 38C28 50 40 58 40 58C40 58 52 50 52 38C52 26 40 20 40 20Z" stroke="url(#aoe)" stroke-width="2" fill="url(#aoe)" fill-opacity=".12"/>
  <!-- Lock inside shield -->
  <rect x="36" y="39" width="8" height="6" rx="1" stroke="url(#aoe)" stroke-width="1.5" fill="none"/>
  <path d="M38 39V36C38 34.9 38.9 34 40 34C41.1 34 42 34.9 42 36V39" stroke="url(#aoe)" stroke-width="1.5" fill="none"/>
  <!-- Blocked arrows (rejected mutations) -->
  <line x1="16" y1="48" x2="24" y2="42" stroke="url(#aoe)" stroke-width="1.2" opacity=".5"/>
  <line x1="22" y1="40" x2="26" y2="44" stroke="url(#aoe)" stroke-width="1.5"/>
  <line x1="22" y1="44" x2="26" y2="40" stroke="url(#aoe)" stroke-width="1.5"/>
  <!-- Append arrow (allowed) -->
  <line x1="40" y1="62" x2="40" y2="72" stroke="url(#aoe)" stroke-width="1.5" opacity=".6"/>
  <polyline points="37,69 40,72 43,69" stroke="url(#aoe)" stroke-width="1.5" fill="none" opacity=".6"/>
</svg>
