<svg xmlns="http://www.w3.org/2000/svg" viewBox="0 0 80 80" fill="none">
  <defs>
    <linearGradient id="ml" x1="0" y1="0" x2="80" y2="80" gradientUnits="userSpaceOnUse">
      <stop stop-color="#a78bfa"/>
      <stop offset="1" stop-color="#6d28d9"/>
    </linearGradient>
  </defs>
  <!-- Top-level partition: full width container -->
  <rect x="4" y="6" width="72" height="60" rx="4" stroke="url(#ml)" stroke-width="1.5" fill="url(#ml)" fill-opacity=".08"/>
  <text x="40" y="14" text-anchor="middle" font-size="4" font-family="monospace" fill="url(#ml)" opacity=".7">YEAR=2024</text>
  <!-- Mid-level partitions: two columns -->
  <rect x="8" y="18" width="30" height="44" rx="3" stroke="url(#ml)" stroke-width="1" fill="url(#ml)" fill-opacity=".12"/>
  <text x="23" y="26" text-anchor="middle" font-size="3.5" font-family="monospace" fill="url(#ml)" opacity=".6">MONTH=01</text>
  <rect x="42" y="18" width="30" height="44" rx="3" stroke="url(#ml)" stroke-width="1" fill="url(#ml)" fill-opacity=".12"/>
  <text x="57" y="26" text-anchor="middle" font-size="3.5" font-family="monospace" fill="url(#ml)" opacity=".6">MONTH=02</text>
  <!-- Leaf partitions in left column -->
  <rect x="11" y="30" width="12" height="14" rx="2" fill="url(#ml)" opacity=".3"/>
  <text x="17" y="39" text-anchor="middle" font-size="3" font-family="monospace" fill="url(#ml)" opacity=".6">D01</text>
  <rect x="25" y="30" width="12" height="14" rx="2" fill="url(#ml)" opacity=".25"/>
  <text x="31" y="39" text-anchor="middle" font-size="3" font-family="monospace" fill="url(#ml)" opacity=".6">D02</text>
  <rect x="11" y="46" width="12" height="14" rx="2" fill="url(#ml)" opacity=".2"/>
  <text x="17" y="55" text-anchor="middle" font-size="3" font-family="monospace" fill="url(#ml)" opacity=".6">D03</text>
  <rect x="25" y="46" width="12" height="14" rx="2" fill="url(#ml)" opacity=".3"/>
  <text x="31" y="55" text-anchor="middle" font-size="3" font-family="monospace" fill="url(#ml)" opacity=".6">D04</text>
  <!-- Leaf partitions in right column -->
  <rect x="45" y="30" width="12" height="14" rx="2" fill="url(#ml)" opacity=".3"/>
  <text x="51" y="39" text-anchor="middle" font-size="3" font-family="monospace" fill="url(#ml)" opacity=".6">D01</text>
  <rect x="59" y="30" width="12" height="14" rx="2" fill="url(#ml)" opacity=".25"/>
  <text x="65" y="39" text-anchor="middle" font-size="3" font-family="monospace" fill="url(#ml)" opacity=".6">D02</text>
  <rect x="45" y="46" width="12" height="14" rx="2" fill="url(#ml)" opacity=".2"/>
  <text x="51" y="55" text-anchor="middle" font-size="3" font-family="monospace" fill="url(#ml)" opacity=".6">D03</text>
  <rect x="59" y="46" width="12" height="14" rx="2" fill="url(#ml)" opacity=".3"/>
  <text x="65" y="55" text-anchor="middle" font-size="3" font-family="monospace" fill="url(#ml)" opacity=".6">D04</text>
  <!-- Label -->
  <text x="40" y="78" text-anchor="middle" font-size="4.5" font-family="monospace" fill="url(#ml)" opacity=".6">MULTI-LEVEL</text>
</svg>
