<svg xmlns="http://www.w3.org/2000/svg" viewBox="0 0 80 80" fill="none">
  <defs>
    <linearGradient id="cv" x1="0" y1="0" x2="80" y2="80" gradientUnits="userSpaceOnUse">
      <stop stop-color="#ef4444"/>
      <stop offset="1" stop-color="#f59e0b"/>
    </linearGradient>
  </defs>
  <!-- Shield outline -->
  <path d="M40 8L16 20V42C16 56 40 72 40 72S64 56 64 42V20L40 8Z" stroke="url(#cv)" stroke-width="2" fill="url(#cv)" fill-opacity=".1"/>
  <!-- Inner shield highlight -->
  <path d="M40 14L22 24V40C22 50 40 64 40 64S58 50 58 40V24L40 14Z" fill="url(#cv)" fill-opacity=".05"/>
  <!-- Checkmark (accepted) -->
  <path d="M28 36L35 43L45 30" stroke="url(#cv)" stroke-width="2.5" stroke-linecap="round" stroke-linejoin="round" fill="none"/>
  <!-- X mark (rejected) — smaller, to the side -->
  <path d="M48 33L54 39M54 33L48 39" stroke="url(#cv)" stroke-width="2" stroke-linecap="round" opacity=".6"/>
  <!-- Error indicator dots -->
  <circle cx="30" cy="52" r="2" fill="url(#cv)" opacity=".5"/>
  <circle cx="37" cy="52" r="2" fill="url(#cv)" opacity=".5"/>
  <circle cx="44" cy="52" r="2" fill="url(#cv)" opacity=".3"/>
  <!-- 997/824 label -->
  <text x="40" y="62" font-family="monospace" font-size="6" fill="url(#cv)" text-anchor="middle" opacity=".5">997 / 824</text>
</svg>
